<svg width="116" height="82" viewBox="0 0 116 82" fill="none" xmlns="http://www.w3.org/2000/svg">
<path d="M101.047 33.7946C101.047 27.6766 101.042 5.13453 101.042 5.13453L95.3709 10.9986V54.7159C101.607 47.9376 101.047 37.8486 101.047 33.79V33.7946ZM84.7649 16.2439V37.3176L90.4359 32.7464V10.3706L84.7649 16.2439ZM79.83 74.1135L79.8161 15.579L74.1451 21.4523V55.0484C74.1451 61.9837 74.7608 69.7732 79.7791 75.1062L79.83 75.1617V74.1181V74.1135ZM96.3153 56.6968C93.5515 59.9982 90.4267 63.7337 90.4267 63.7337V38.9476L84.7649 43.9482L84.7418 70.5166L80.8577 75.1524H87.5981V80.5548L87.6398 82C77.6125 76.0066 69.062 71.8418 69.2055 57.6572V18.1047L106 0V33.9331C106 45.9891 102.681 49.1012 96.3199 56.6968H96.3153ZM50.5675 38.3612H50.0305L49.0629 43.9759H51.5304L50.5629 38.3612H50.5675ZM50.299 36.8051L50.2897 36.8559H50.3082L50.299 36.8051ZM52.4285 49.0642L51.9609 46.4L51.8174 45.5874H48.7852L48.6417 46.4L48.1741 49.0642H46.4103L48.6787 36.7082H51.9332L54.2016 49.0642H52.4378H52.4285ZM22.2865 38.3612H21.7494L20.7819 43.9759H23.2494L22.2818 38.3612H22.2865ZM22.018 36.8051L22.0087 36.8559H22.0272L22.018 36.8051ZM24.1475 49.0642L23.6799 46.4L23.5364 45.5874H20.5041L20.3606 46.4L19.893 49.0642H18.1292L20.3977 36.7082H23.6521L25.9205 49.0642H24.1567H24.1475ZM41.8457 44.4838V46.5616C41.8457 47.2219 41.5818 47.8545 41.1143 48.3209C40.6467 48.7872 40.0124 49.0504 39.3458 49.0504H37.6329C36.9709 49.0504 36.3321 48.7872 35.8645 48.3209C35.3969 47.8545 35.1331 47.2219 35.1331 46.5616V44.7285L36.9571 43.9805V46.28C36.9571 46.5524 37.0728 46.811 37.2672 47.0049H37.2719C37.4663 47.1988 37.7209 47.3004 37.994 47.3004H38.9847C39.2532 47.3004 39.5125 47.1942 39.7069 47.0095C39.906 46.8156 40.0171 46.5524 40.0171 46.2754V45.3842L35.1377 41.4825V39.2108C35.1377 38.5505 35.4016 37.9179 35.8691 37.4515C36.3367 36.9852 36.9709 36.722 37.6376 36.722H39.3504C40.0125 36.722 40.6467 36.9852 41.1189 37.4515C41.5865 37.9179 41.8503 38.5505 41.8503 39.2108V41.0808L40.0217 41.8288V39.4878C40.0217 39.2108 39.9106 38.9476 39.7115 38.7536C39.5171 38.5643 39.2625 38.4627 38.9893 38.4627H37.9987C37.7302 38.4627 37.4709 38.569 37.2765 38.7536C37.0774 38.9476 36.9663 39.2108 36.9663 39.4878V40.439L41.8457 44.4884V44.4838ZM14.7729 38.7583C14.5785 38.569 14.3239 38.4674 14.0507 38.4674H12.8564C12.5879 38.4674 12.3286 38.5736 12.1342 38.7583C11.9351 38.9522 11.824 39.2154 11.824 39.4924V46.2938C11.824 46.5709 11.9351 46.834 12.1342 47.028C12.3286 47.2173 12.5832 47.3189 12.8564 47.3189H15.0785V39.4924C15.0785 39.2154 14.9674 38.9522 14.7683 38.7583H14.7729ZM17.1941 50.8142L15.0831 49.0781V49.0596H12.4999C11.8379 49.0596 11.2037 48.7964 10.7315 48.3301C10.2639 47.8637 10 47.2311 10 46.5709V39.2108C10 38.5505 10.2639 37.9179 10.7315 37.4515C11.199 36.9852 11.8379 36.722 12.4999 36.722H14.4165C15.0785 36.722 15.7127 36.9852 16.1849 37.4515C16.6525 37.9179 16.9163 38.5505 16.9163 39.2108V47.3143H15.0877L17.1988 49.0504V50.8096L17.1941 50.8142ZM60.0254 49.0642V43.9759H57.1505V49.0642H55.271V36.7082H57.1505V42.3598H60.0254V36.7082H61.891V49.0642H60.0254ZM43.429 49.0642V36.7082H45.3085V49.0642H43.429ZM31.6842 39.7741C31.6842 38.8875 31.1657 38.3612 30.3 38.3612H28.8787V47.4159H30.3C31.1657 47.4159 31.6842 46.8848 31.6842 46.0029V39.7787V39.7741ZM30.6101 49.0642H26.9992V36.7082H30.6101C32.3647 36.7082 33.5452 37.8579 33.5452 39.5663V46.2061C33.5452 47.9145 32.3647 49.0642 30.6101 49.0642ZM35.9062 30.4424V28.5862H40.0819V23.0315C40.0819 22.4728 39.6282 22.0157 39.0634 22.0157H38.7856C38.2255 22.0157 37.7672 22.4682 37.7672 23.0315V26.0743L35.9015 25.3125V22.9068C35.9015 21.5077 37.0404 20.3719 38.4477 20.3719H39.4014C40.8041 20.3719 41.9475 21.5077 41.9475 22.9068V30.447H35.9062V30.4424ZM48.3732 19.0005V17.3521H53.1507V19.0005H48.3732ZM11.2314 19.0005V17.3521H16.009V19.0005H11.2314ZM24.5363 29.8236V20.9767H26.402V29.8236H24.5363ZM28.5362 29.8236V20.9767H30.4018V29.8236H28.5362ZM17.9719 33.4621V31.8137H22.7494V33.4621H17.9719ZM19.5968 29.8236V20.4642H21.4624V29.8236H19.5968ZM45.9983 30.4424C44.5909 30.4424 43.4521 29.3065 43.4521 27.9074V17.6061H45.3178V27.5704C45.3178 28.1291 45.7714 28.5862 46.3362 28.5862H56.2061V17.6061H58.0718V30.4424H45.9983ZM15.6386 30.4424V28.5862H24.8743L25.0826 30.4424H15.6386ZM52.2063 23.11C52.2063 22.5513 51.748 22.0942 51.1878 22.0942H50.3314C49.7712 22.0942 49.3129 22.5467 49.3129 23.11V28.6739H52.2017V23.11H52.2063ZM47.4565 29.5004V22.9853C47.4565 21.5862 48.5954 20.4504 50.0027 20.4504H51.5304C52.9331 20.4504 54.0766 21.5862 54.0766 22.9853V29.5004H47.4612H47.4565ZM24.1429 30.4424L24.4762 28.5862H32.5359V20.4504H34.4016V30.4424H24.1475H24.1429ZM12.9258 22.108C12.3656 22.108 11.9073 22.5605 11.9073 23.1238V27.5704C11.9073 28.1291 12.361 28.5862 12.9258 28.5862H14.7961V22.108H12.9258ZM16.2636 29.0156V30.4424H12.5879C11.1851 30.4424 10.0417 29.3065 10.0417 27.9074V22.9853C10.0417 21.5862 11.1805 20.4504 12.5879 20.4504H16.6617V29.0341L16.2636 29.0156ZM59.9513 30.4424V17.6061H61.8169V30.4424H59.9513Z" fill="#DA2B1F"/>
</svg>
